<?xml version="1.0" standalone="no"?><!DOCTYPE svg PUBLIC "-//W3C//DTD SVG 1.1//EN" "http://www.w3.org/Graphics/SVG/1.1/DTD/svg11.dtd"><svg t="1503991580789" class="icon" style="" viewBox="0 0 1024 1024" version="1.1" xmlns="http://www.w3.org/2000/svg" p-id="15065" xmlns:xlink="http://www.w3.org/1999/xlink" width="32" height="32"><defs><style type="text/css"></style></defs><path d="M936.838212 849.684049c1.35078 179.239761-174.294164 174.294164-174.294164 174.294164s-1.198272-48.519138 0-43.573541c47.669454-0.827897 122.201996-10.501223 130.720623-130.720623 6.971767-166.55986-171.461884-301.986426-224.556243-338.52284C621.757937 545.758601 563.914061 566.456033 501.102802 566.456033s-120.655135-20.697432-167.605625-55.294824C280.402817 547.697623 101.94738 683.124189 108.940933 849.684049c8.518627 120.2194 83.072956 129.892726 130.720623 130.720623 1.176486-4.945597 0 43.573541 0 43.573541s-175.644944 4.945597-174.294164-174.294164c0.980405-129.849152 129.108402-311.529031 239.915917-362.139699C251.513559 435.996851 217.874786 363.599413 217.874786 283.228016 217.874786 126.799004 344.67379 0 501.102802 0c156.429012 0 283.228016 126.799004 283.228016 283.228016 0 80.371396-33.638774 152.768835-87.408523 204.316334C807.72981 538.155018 935.857807 719.834897 936.838212 849.684049zM745.52858 283.228016c0-134.99083-109.434948-244.425778-244.425778-244.425778C366.111972 38.802238 256.677024 148.237186 256.677024 283.228016S366.111972 527.653795 501.102802 527.653795C636.071845 527.653795 745.52858 418.218846 745.52858 283.228016z" p-id="15066" fill="#d81e06"></path></svg>